<svg width="73" height="72" viewBox="0 0 73 72" fill="none" xmlns="http://www.w3.org/2000/svg">
<path d="M0.5 36C0.5 16.1178 16.6178 0 36.5 0C56.3823 0 72.5 16.1178 72.5 36C72.5 55.8823 56.3823 72 36.5 72C16.6178 72 0.5 55.8823 0.5 36Z" fill="#FFF2F3"/>
<g clip-path="url(#clip0_2638_4812)">
<g clip-path="url(#clip1_2638_4812)">
<g clip-path="url(#clip2_2638_4812)">
<path d="M31.2754 43.6055H40.7247V48.3301H31.2754V43.6055Z" fill="#E74040"/>
<path d="M35.9997 25.6523C30.2683 25.6523 25.6055 30.3153 25.6055 36.0466V50.2206C25.6055 52.3047 27.3011 54.0003 29.3852 54.0003H42.6142C44.6984 54.0003 46.394 52.3047 46.394 50.2206V36.0466C46.394 30.3152 41.7312 25.6523 35.9997 25.6523ZM30.3301 34.1567H41.6693V36.0466H39.7795V37.9365H37.8896V36.0466H30.3301V34.1567ZM42.6142 50.2206H29.3852V41.7162H42.6142V50.2206Z" fill="#E74040"/>
<path d="M45.7042 23.8388L40.3411 22L39.5566 24.288C41.4519 24.8625 43.1545 25.8834 44.5422 27.228L45.7042 23.8388Z" fill="#E74040"/>
<path d="M32.4425 24.288L31.658 22L26.2949 23.8388L27.4569 27.228C28.8446 25.8834 30.5473 24.8625 32.4425 24.288Z" fill="#E74040"/>
</g>
</g>
</g>
<defs>
<clipPath id="clip0_2638_4812">
<rect width="32" height="32" fill="white" transform="translate(20 22)"/>
</clipPath>
<clipPath id="clip1_2638_4812">
<rect width="32" height="32" fill="white" transform="translate(20 22)"/>
</clipPath>
<clipPath id="clip2_2638_4812">
<rect width="20.7885" height="32" fill="white" transform="translate(25.6055 22)"/>
</clipPath>
</defs>
</svg>
