<svg width="73" height="72" viewBox="0 0 73 72" fill="none" xmlns="http://www.w3.org/2000/svg">
<path d="M0.5 36C0.5 16.1178 16.6178 0 36.5 0C56.3823 0 72.5 16.1178 72.5 36C72.5 55.8823 56.3823 72 36.5 72C16.6178 72 0.5 55.8823 0.5 36Z" fill="#FFF2F3"/>
<g clip-path="url(#clip0_2638_4823)">
<g clip-path="url(#clip1_2638_4823)">
<g clip-path="url(#clip2_2638_4823)">
<path d="M26.6139 47.5456H48.4113C48.478 47.5456 48.5427 47.5361 48.6048 47.5213C48.6098 47.5213 48.6139 47.5221 48.6188 47.5221C49.0841 47.5221 49.4622 47.1445 49.4622 46.6788V22.8433C49.4622 22.3778 49.0841 22 48.6188 22H48.413H27.9626H26.615C24.3703 22 22.5445 23.8263 22.5445 26.0704C22.5445 26.1005 22.5504 26.129 22.5533 26.1581C22.5504 28.2311 22.5247 47.2792 22.5504 49.7833C22.5488 49.8322 22.5428 49.88 22.5428 49.9295C22.5428 52.0873 24.2324 53.8538 26.3576 53.9873C26.4003 53.9939 26.4421 54.0001 26.4863 54.0001H48.6188C49.0841 54.0001 49.4621 53.6225 49.4621 53.1567V49.9823C49.4621 49.5169 49.084 49.139 48.6188 49.139C48.1535 49.139 47.7754 49.517 47.7754 49.9823V52.3135H26.6139C25.3323 52.3135 24.2862 51.296 24.2348 50.0272C24.236 50.0045 24.2401 49.9831 24.2397 49.9601C24.2389 49.923 24.2376 49.8654 24.2368 49.7888C24.3105 48.54 25.3469 47.5456 26.6139 47.5456ZM27.1889 26.0704C27.1889 25.6049 27.5667 25.227 28.0322 25.227C28.4978 25.227 28.8756 25.6049 28.8756 26.0704V43.2008C28.8756 43.6661 28.4978 44.0441 28.0322 44.0441C27.5667 44.0441 27.1889 43.666 27.1889 43.2008V26.0704Z" fill="#E74040"/>
</g>
</g>
</g>
<defs>
<clipPath id="clip0_2638_4823">
<rect width="32" height="32" fill="white" transform="translate(20 22)"/>
</clipPath>
<clipPath id="clip1_2638_4823">
<rect width="32" height="32" fill="white" transform="translate(20 22)"/>
</clipPath>
<clipPath id="clip2_2638_4823">
<rect width="26.9231" height="32.0001" fill="white" transform="translate(22.5391 22)"/>
</clipPath>
</defs>
</svg>
