<svg width="73" height="72" viewBox="0 0 73 72" fill="none" xmlns="http://www.w3.org/2000/svg">
<path d="M0.5 36C0.5 16.1178 16.6178 0 36.5 0C56.3823 0 72.5 16.1178 72.5 36C72.5 55.8823 56.3823 72 36.5 72C16.6178 72 0.5 55.8823 0.5 36Z" fill="#FFF2F3"/>
<g clip-path="url(#clip0_2638_4833)">
<g clip-path="url(#clip1_2638_4833)">
<g clip-path="url(#clip2_2638_4833)">
<g clip-path="url(#clip3_2638_4833)">
<path d="M24.8959 25.7754C24.895 25.7754 24.8941 25.7754 24.8932 25.7754C24.5905 25.7754 24.3059 25.8934 24.0909 26.1078C23.8736 26.3246 23.7539 26.6132 23.7539 26.9205V44.0912C23.7539 44.7209 24.2682 45.2344 24.9004 45.236C27.5658 45.2423 32.0314 45.7979 35.112 49.0217V31.0521C35.112 30.8386 35.0575 30.6381 34.9546 30.4722C32.4262 26.4003 27.5673 25.7816 24.8959 25.7754Z" fill="#E74040"/>
<path d="M48.2467 44.0913V26.9205C48.2467 26.6132 48.127 26.3246 47.9096 26.1078C47.6947 25.8934 47.4098 25.7754 47.1075 25.7754C47.1065 25.7754 47.1055 25.7754 47.1047 25.7754C44.4334 25.7817 39.5745 26.4004 37.046 30.4723C36.9431 30.6382 36.8887 30.8387 36.8887 31.0522V49.0217C39.9693 45.7979 44.4349 45.2423 47.1003 45.236C47.7324 45.2344 48.2467 44.7209 48.2467 44.0913Z" fill="#E74040"/>
<path d="M50.8554 29.7344H50.0252V44.0904C50.0252 45.698 48.7153 47.0089 47.1052 47.0129C44.8444 47.0183 41.1166 47.4604 38.4766 49.9591C43.0426 48.8411 47.8559 49.5679 50.5991 50.193C50.9416 50.271 51.2956 50.1904 51.57 49.9717C51.8434 49.7535 52.0003 49.4274 52.0003 49.0773V30.8793C52.0004 30.248 51.4867 29.7344 50.8554 29.7344Z" fill="#E74040"/>
<path d="M21.9752 44.0904V29.7344H21.1449C20.5137 29.7344 20 30.248 20 30.8793V49.077C20 49.4272 20.1569 49.7532 20.4303 49.9714C20.7045 50.19 21.0582 50.2709 21.4012 50.1927C24.1444 49.5674 28.9579 48.8408 33.5237 49.9588C30.8837 47.4602 27.156 47.0182 24.8952 47.0128C23.2851 47.0089 21.9752 45.698 21.9752 44.0904Z" fill="#E74040"/>
</g>
</g>
</g>
</g>
<defs>
<clipPath id="clip0_2638_4833">
<rect width="32" height="32" fill="white" transform="translate(20 22)"/>
</clipPath>
<clipPath id="clip1_2638_4833">
<rect width="32" height="24.4476" fill="white" transform="translate(20 25.7754)"/>
</clipPath>
<clipPath id="clip2_2638_4833">
<rect width="32" height="24.4476" fill="white" transform="translate(20 25.7754)"/>
</clipPath>
<clipPath id="clip3_2638_4833">
<rect width="32" height="24.4476" fill="white" transform="translate(20 25.7754)"/>
</clipPath>
</defs>
</svg>
